<svg xmlns="http://www.w3.org/2000/svg" viewBox="0 0 32 32" width="45" height="45">
  <!-- AVG Signal - Privacy category icon (lock/padlock) -->
  <!-- Original: stroke #1E222A, fill none, viewBox 0 0 32 32, rendered at 45x45px -->
  <path fill="none" fill-rule="evenodd" stroke="#1E222A" stroke-linecap="round" stroke-linejoin="round" d="M10.9 15.7c.3-.3.5-.5.8-.7v-1c0-1.2.5-2.3 1.4-3.2.8-.9 1.9-1.3 3.1-1.3 1.2 0 2.3.4 3.1 1.3.9.9 1.3 2 1.3 3.2v1c.3.2.6.4.9.7 1 1 1.5 2.1 1.5 3.5V21c0 1.3-.5 2.5-1.5 3.5-.9.9-2.1 1.4-3.4 1.4h-3.7c-1.3 0-2.4-.5-3.4-1.4-1-1-1.5-2.1-1.5-3.5v-1.8c0-1.3.4-2.5 1.4-3.5zm9.9-7.5c-1.3-1.3-2.9-2-4.8-2s-3.6.7-4.9 2m.599 6.8c.8-.5 1.6-.8 2.6-.8h3.7c1 0 1.8.2 2.6.8M22.9 6.2C21 4.3 18.7 3.3 16 3.3s-5 1-6.9 2.9"/>
</svg>
