<svg xmlns="http://www.w3.org/2000/svg" viewBox="0 0 32 32" width="45" height="45">
  <!-- AVG Signal - Performance category icon (speedometer/gauge) -->
  <!-- Original: stroke #1E222A, fill none, viewBox 0 0 32 32, rendered at 45x45px -->
  <g fill="none" fill-rule="evenodd" transform="translate(6 6)">
    <path stroke="#1E222A" stroke-linecap="round" stroke-linejoin="round" d="M.4 9.8C.4 7.2 1.3 5 3 3.3 4.8 1.5 7 .5 9.6.5c2.6 0 4.8.9 6.5 2.8 1.8 1.8 2.7 4 2.7 6.5s-.9 4.7-2.7 6.5c-1.8 1.8-4 2.7-6.5 2.7-2.6 0-4.8-.9-6.6-2.7-1.7-1.8-2.6-4-2.6-6.5zm3.4 0c0-1.6.6-3 1.7-4.1C6.6 4.5 8 3.9 9.6 3.9c1.6 0 3 .6 4.1 1.8 1.1 1.1 1.7 2.5 1.7 4.1"/>
    <g>
      <path stroke="#1E222A" stroke-linecap="round" stroke-linejoin="round" d="M7.1 0.8L1.7 4.8" transform="translate(8 5)"/>
      <g>
        <path fill="#EEE" d="M2 1.2c-.1.1-.2.2-.4.2s-.4-.1-.5-.2C1 1.1.9.9.9.7s.1-.3.2-.5.3-.2.5-.2.4.1.4.2c.1.1.2.3.2.5 0 .3 0 .4-.2.5z" transform="translate(8 5) translate(0 4)"/>
        <path stroke="#1E222A" stroke-linecap="round" stroke-linejoin="round" d="M2 1.2c-.1.1-.2.2-.4.2s-.4-.1-.5-.2C1 1.1.9.9.9.7s.1-.3.2-.5.3-.2.5-.2.4.1.4.2c.1.1.2.3.2.5 0 .3 0 .4-.2.5z" transform="translate(8 5) translate(0 4)"/>
      </g>
    </g>
  </g>
</svg>
